<?xml version="1.0" standalone="no"?>
<!DOCTYPE svg PUBLIC "-//W3C//DTD SVG 20010904//EN"
 "http://www.w3.org/TR/2001/REC-SVG-20010904/DTD/svg10.dtd">
<svg version="1.0" xmlns="http://www.w3.org/2000/svg"
 width="418.000000pt" height="418.000000pt" viewBox="0 0 418.000000 418.000000"
 preserveAspectRatio="xMidYMid meet">
<metadata>
Created by potrace 1.14, written by Peter Selinger 2001-2017
</metadata>
<g transform="translate(0.000000,418.000000) scale(0.100000,-0.100000)"
fill="#000000" stroke="none">
<path d="M1704 3282 c-9 -13 -29 -16 -115 -15 -58 1 -111 -2 -119 -7 -12 -8
-15 -51 -17 -247 -2 -131 -5 -244 -8 -250 -3 -10 -42 -13 -149 -13 -79 0 -151
-3 -160 -6 -13 -5 -16 -25 -16 -116 0 -101 -2 -111 -22 -127 -13 -11 -19 -24
-15 -34 6 -16 87 -63 87 -51 0 4 6 2 13 -3 6 -5 26 -9 44 -8 26 1 30 -1 21
-12 -8 -11 -7 -12 6 -7 9 3 16 1 16 -6 0 -6 5 -8 10 -5 6 3 10 -1 10 -10 0
-11 5 -15 15 -12 8 4 17 1 21 -5 5 -7 2 -8 -6 -3 -9 5 -11 4 -6 -4 4 -6 13
-11 19 -10 25 3 38 -1 32 -11 -3 -5 0 -7 9 -4 9 3 16 -2 18 -13 2 -10 8 9 12
42 4 33 15 76 24 95 l16 35 7 -110 c3 -60 5 -346 4 -634 l-1 -524 -22 -15
c-12 -8 -22 -20 -22 -28 0 -15 52 -54 73 -54 9 0 22 -8 29 -18 17 -24 44 -41
34 -21 -4 8 1 5 11 -7 10 -11 26 -20 36 -18 9 1 15 -3 14 -9 -1 -8 15 -11 46
-10 33 1 45 -2 41 -10 -5 -8 -2 -7 7 1 16 15 29 16 29 1 0 -5 -5 -7 -12 -3 -6
4 -8 3 -5 -3 3 -5 24 -10 46 -10 22 0 38 4 35 9 -3 4 2 8 10 8 9 0 16 5 16 11
0 5 -6 7 -12 4 -7 -4 -5 0 5 8 17 14 14 52 -4 41 -5 -3 -6 -10 -3 -16 5 -7 2
-8 -5 -4 -9 6 -8 13 5 27 14 15 15 22 5 32 -10 9 -11 8 -6 -8 5 -16 5 -17 -3
-5 -6 8 -9 17 -6 21 2 4 -4 14 -13 21 -10 7 -19 20 -21 28 -1 10 2 9 13 -4 11
-15 15 -16 15 -5 0 8 -6 21 -12 28 -11 11 -10 13 2 9 8 -3 15 -16 15 -31 -1
-27 19 -44 30 -27 4 6 1 10 -6 10 -8 0 -8 4 1 15 9 11 9 15 1 15 -9 0 -9 5 0
22 10 18 9 20 -5 15 -8 -3 -18 -2 -21 4 -4 5 -1 8 7 7 10 -2 13 19 13 97 0 55
4 105 8 112 4 6 2 15 -4 19 -8 5 -9 3 -4 -7 6 -10 5 -11 -4 -3 -13 12 -5 44
11 44 5 0 6 5 3 10 -4 6 -11 8 -16 5 -5 -3 -6 2 -2 11 5 13 3 15 -8 9 -12 -8
-12 -6 0 8 16 20 25 23 15 5 -4 -7 -3 -10 1 -5 13 11 13 47 1 47 -6 0 -4 5 4
10 10 6 11 10 3 10 -7 0 -13 7 -13 15 0 8 4 15 8 15 4 0 8 9 8 19 0 11 -4 18
-8 15 -4 -2 -6 4 -5 15 1 15 4 17 14 9 10 -8 12 -7 7 5 -3 8 -12 18 -21 21
-13 5 -13 8 1 22 9 8 16 19 16 24 0 14 -18 21 -25 10 -4 -6 -10 -8 -15 -5 -14
9 -23 -15 -11 -29 11 -14 5 -26 -13 -26 -6 0 -4 5 4 10 10 6 11 10 3 10 -7 0
-13 12 -13 26 0 14 4 23 10 19 6 -3 10 0 10 7 0 9 3 9 10 -2 9 -14 15 -7 11
14 -1 5 4 4 12 -2 11 -10 17 -9 28 5 12 15 12 16 -5 10 -14 -6 -16 -5 -8 5 5
7 12 27 15 45 3 17 8 37 13 44 4 8 3 10 -4 5 -7 -4 -12 -1 -12 8 0 9 3 15 8
15 19 -3 29 2 29 17 0 14 -2 14 -14 -2 -11 -15 -13 -15 -13 -2 0 9 -4 18 -10
20 -5 2 -7 13 -4 25 7 24 24 22 24 -3 0 -9 -5 -12 -12 -8 -7 4 -10 3 -5 -1 9
-11 57 -13 51 -3 -3 4 -2 14 3 21 4 6 8 17 8 22 1 6 6 9 12 8 17 -4 33 21 24
36 -6 9 -11 10 -15 2 -4 -6 -2 -11 4 -11 6 0 8 -5 4 -11 -4 -8 -9 -8 -13 -1
-4 6 -22 14 -40 17 -29 5 -32 4 -22 -9 7 -8 18 -13 25 -10 16 6 14 -32 -2 -48
-9 -9 -12 -9 -13 2 -1 8 -1 18 0 23 0 4 -4 7 -10 7 -5 0 -8 4 -4 9 3 5 1 12
-5 16 -15 9 -1 27 16 21 14 -5 18 5 14 34 -1 8 0 13 2 10 2 -3 10 -14 18 -24
10 -13 10 -17 3 -12 -7 4 -13 2 -13 -3 0 -16 26 -13 40 4 7 8 8 15 2 15 -5 0
-12 10 -15 21 -4 15 -11 20 -22 15 -10 -3 -14 -2 -10 5 4 6 13 8 19 6 7 -3 13
1 13 8 0 8 -7 11 -16 7 -14 -5 -14 -4 -1 10 17 18 30 14 30 -8 0 -8 4 -13 9
-10 11 7 9 -13 -3 -33 -6 -10 -5 -12 2 -7 8 5 12 -1 12 -18 0 -14 5 -28 12
-32 7 -4 8 -3 4 5 -8 13 12 44 23 36 4 -2 8 2 8 10 0 11 -4 12 -14 4 -7 -6
-13 -10 -14 -8 -7 36 -7 36 26 29 28 -6 32 -5 28 8 -4 10 -2 13 5 8 8 -4 10
-2 6 7 -3 8 2 17 12 21 12 5 15 2 10 -11 -4 -9 4 -5 19 11 15 16 30 24 38 20
7 -5 7 -2 -2 10 -13 15 -12 17 12 12 26 -5 43 5 30 18 -3 3 -12 1 -20 -5 -9
-9 -13 -8 -13 0 0 6 5 12 10 12 6 1 16 2 23 3 6 1 15 -3 19 -9 5 -6 8 -6 8 2
0 7 7 10 15 6 9 -3 15 -2 14 3 -1 5 -1 16 0 24 1 12 3 13 10 1 6 -9 10 -10 16
-2 5 9 10 9 21 0 11 -9 14 -8 14 6 0 12 6 16 19 12 11 -3 22 1 25 9 3 8 12 11
21 8 9 -4 24 1 34 10 16 15 20 15 31 1 7 -8 17 -12 24 -8 6 4 18 8 26 8 8 0
14 6 12 13 -1 8 2 11 8 7 6 -3 8 -10 5 -15 -3 -5 -1 -11 5 -15 5 -3 10 -2 10
3 0 12 53 10 62 -3 5 -6 8 -5 8 4 0 11 3 11 16 0 9 -7 26 -13 38 -14 15 0 34
-20 66 -67 29 -45 48 -64 54 -58 22 22 30 9 50 -76 9 -36 12 -170 12 -465 -1
-369 -3 -418 -18 -447 -9 -18 -15 -39 -12 -46 5 -14 102 -63 116 -58 4 1 8 -5
8 -15 0 -9 3 -13 6 -10 4 3 16 1 27 -4 15 -8 22 -8 28 2 7 11 9 11 9 -2 0 -9
7 -20 16 -23 15 -6 15 -4 3 11 -13 16 -12 17 3 5 14 -11 18 -10 27 5 6 10 11
13 11 6 0 -6 -4 -15 -10 -18 -17 -11 -11 -31 10 -32 11 -1 18 2 15 8 -9 14 48
-13 63 -31 12 -13 13 -13 8 2 -3 10 0 20 6 24 6 4 8 3 5 -3 -4 -6 0 -14 9 -17
12 -4 15 -2 11 9 -4 8 -1 17 5 21 6 4 9 3 6 -2 -3 -5 0 -15 8 -22 8 -7 14 -9
15 -5 0 4 2 16 4 26 2 10 -3 17 -11 17 -9 0 -12 5 -9 10 4 6 10 8 15 5 5 -3
11 -1 15 5 3 5 1 10 -6 10 -7 0 -9 3 -6 7 4 3 1 13 -6 21 -8 11 -8 14 0 9 7
-4 13 0 15 10 2 11 -6 23 -22 31 -14 7 -18 10 -8 8 9 -3 18 2 20 12 6 22 -1
44 -12 37 -11 -7 -7 22 5 32 4 4 5 2 0 -6 -5 -9 -4 -12 3 -7 7 4 12 14 12 22
0 10 -5 12 -12 8 -8 -5 -7 0 2 11 13 17 13 18 0 10 -13 -7 -13 -6 -2 7 8 10 9
19 3 22 -5 4 -14 0 -18 -9 -7 -12 -10 -11 -21 5 -7 12 -8 20 -2 20 5 0 10 -5
10 -12 0 -9 3 -9 12 0 10 10 10 15 -2 22 -11 7 -11 10 -2 10 7 0 15 -7 18 -15
4 -8 11 -15 16 -15 6 0 6 5 -1 14 -6 8 -10 20 -9 27 2 7 -6 14 -17 16 l-20 3
20 -9 c18 -9 17 -10 -8 -10 -24 -1 -27 2 -25 29 1 16 6 30 10 30 20 0 23 -2
20 -17 -2 -8 1 -12 7 -8 25 15 9 41 -21 36 -15 -2 -8 15 12 29 11 8 20 19 20
24 0 5 -8 2 -17 -6 -10 -8 -25 -19 -33 -23 -13 -8 -13 -7 -1 8 9 12 10 17 2
17 -7 0 -9 5 -5 11 3 6 6 39 6 72 0 36 5 65 12 69 6 4 7 8 1 8 -6 0 -11 62
-12 163 -5 328 -20 412 -101 572 -47 93 -70 124 -142 196 -75 76 -145 132
-126 100 9 -14 0 -14 -26 0 -18 9 -20 9 -15 -4 4 -11 -9 -6 -41 14 -139 88
-400 124 -571 79 -140 -38 -209 -71 -304 -147 l-67 -54 19 52 c11 28 30 64 43
78 21 23 21 24 1 8 l-21 -18 -4 58 c-2 32 -5 162 -6 288 -2 127 -5 237 -7 245
-3 8 -13 20 -23 26 -15 10 -20 9 -28 -4z m650 -940 c3 -5 -1 -9 -9 -9 -8 0
-12 4 -9 9 3 4 7 8 9 8 2 0 6 -4 9 -8z m-180 -28 c3 -8 2 -12 -4 -9 -6 3 -10
10 -10 16 0 14 7 11 14 -7z m-184 -19 c0 -12 -19 -12 -23 0 -4 9 -1 12 9 8 7
-3 14 -7 14 -8z m136 -9 c0 -14 -3 -23 -7 -20 -6 3 -6 22 0 42 3 10 7 -2 7
-22z m34 10 c0 -3 -4 -8 -10 -11 -5 -3 -10 -1 -10 4 0 6 5 11 10 11 6 0 10 -2
10 -4z m-70 -50 c0 -10 -30 0 -34 11 -4 11 -1 11 14 3 11 -6 20 -12 20 -14z
m-170 -17 c0 -5 -4 -9 -8 -9 -5 0 -9 7 -9 15 0 8 4 12 9 9 4 -3 8 -9 8 -15z
m56 -8 c0 -15 -3 -17 -13 -9 -7 6 -10 14 -7 19 9 15 20 10 20 -10z m49 10 c3
-5 2 -12 -3 -15 -5 -3 -9 1 -9 9 0 17 3 19 12 6z m-75 -42 c0 -5 4 -8 9 -5 5
3 12 -1 15 -10 3 -8 10 -12 16 -9 6 4 8 11 5 16 -4 5 -1 9 4 9 16 0 13 -27 -2
-33 -8 -3 -27 5 -43 19 -16 13 -23 23 -16 24 6 0 12 -5 12 -11z m-86 -69 c10
-13 9 -13 -6 -1 -10 7 -18 21 -17 30 0 13 1 14 6 1 3 -8 11 -22 17 -30z m-38
-75 c1 -14 -2 -25 -7 -25 -5 0 -9 14 -9 32 0 36 12 31 16 -7z m-12 -59 c-3 -8
1 -20 9 -27 15 -14 11 -49 -5 -49 -5 0 -6 5 -3 10 3 6 2 10 -4 10 -5 0 -11 -6
-14 -12 -2 -7 -7 -10 -11 -7 -4 4 0 14 9 22 18 18 20 31 3 21 -8 -5 -9 -2 -5
10 4 10 7 24 7 32 0 9 4 13 10 9 5 -3 7 -12 4 -19z m20 -101 c3 -8 1 -15 -4
-15 -6 0 -10 7 -10 15 0 8 2 15 4 15 2 0 6 -7 10 -15z m-21 -40 c4 -8 1 -17
-5 -21 -7 -4 -8 -3 -4 4 4 7 2 12 -4 12 -6 0 -8 5 -5 10 8 14 12 13 18 -5z
m-33 -19 c0 -3 -4 -8 -10 -11 -5 -3 -10 -1 -10 4 0 6 5 11 10 11 6 0 10 -2 10
-4z m0 -137 c0 -11 -4 -17 -10 -14 -5 3 -10 13 -10 21 0 8 5 14 10 14 6 0 10
-9 10 -21z m18 -85 c2 -1 -5 -5 -15 -8 -9 -4 -14 -4 -10 0 4 4 1 14 -6 23 -11
14 -10 15 8 1 11 -8 21 -15 23 -16z m-1 -29 c0 -8 -4 -12 -9 -9 -5 3 -6 10 -3
15 9 13 12 11 12 -6z m9 -255 c0 -11 -4 -20 -8 -20 -10 0 -11 24 -1 33 9 9 9
10 9 -13z m1334 -90 c0 -5 -5 -10 -11 -10 -5 0 -7 5 -4 10 3 6 8 10 11 10 2 0
4 -4 4 -10z m-1399 -113 c-10 -9 -11 -8 -5 6 3 10 9 15 12 12 3 -3 0 -11 -7
-18z m1406 -22 c0 -8 -4 -12 -9 -9 -5 3 -6 10 -3 15 9 13 12 11 12 -6z m-22
-15 c3 -6 -1 -7 -9 -4 -18 7 -21 14 -7 14 6 0 13 -4 16 -10z m-23 -15 c3 0 10
-4 15 -9 4 -5 3 -6 -4 -3 -6 4 -13 3 -15 -3 -2 -6 -9 -1 -16 11 -11 17 -11 20
0 13 7 -5 16 -9 20 -9z m-45 -20 c0 -8 -4 -12 -9 -9 -5 3 -6 10 -3 15 9 13 12
11 12 -6z"/>
<path d="M1783 2715 c0 -8 4 -12 9 -9 5 3 6 10 3 15 -9 13 -12 11 -12 -6z"/>
<path d="M2377 2323 c-4 -3 -7 -11 -7 -17 0 -6 5 -5 12 2 6 6 9 14 7 17 -3 3
-9 2 -12 -2z"/>
<path d="M3146 1832 c-3 -5 1 -9 9 -9 8 0 12 4 9 9 -3 4 -7 8 -9 8 -2 0 -6 -4
-9 -8z"/>
<path d="M3130 1746 c0 -8 4 -17 9 -20 5 -4 7 3 4 14 -6 23 -13 26 -13 6z"/>
<path d="M3155 1691 c-3 -5 -2 -12 3 -15 5 -3 9 1 9 9 0 17 -3 19 -12 6z"/>
<path d="M3147 1633 c3 -7 6 -13 8 -13 2 0 5 6 8 13 3 8 -1 14 -8 14 -7 0 -11
-6 -8 -14z"/>
<path d="M3145 1600 c-3 -6 1 -7 9 -4 18 7 21 14 7 14 -6 0 -13 -4 -16 -10z"/>
<path d="M3155 1559 c1 -10 5 -22 10 -26 4 -5 5 -3 1 4 -3 6 -2 14 4 18 14 9
12 22 -3 22 -7 0 -13 -8 -12 -18z"/>
<path d="M3149 1518 c-7 -25 -5 -36 6 -31 8 2 11 11 8 19 -5 12 -12 18 -14 12z"/>
<path d="M3050 1000 c0 -6 5 -10 11 -10 5 0 7 -5 3 -12 -4 -7 -3 -8 4 -4 16
10 15 23 -3 30 -8 3 -15 1 -15 -4z"/>
<path d="M3015 990 c-3 -5 -2 -10 4 -10 5 0 13 5 16 10 3 6 2 10 -4 10 -5 0
-13 -4 -16 -10z"/>
</g>
</svg>
